<?xml version="1.0" encoding="utf-8"?>
<svg version="1.1" id="Layer_1" xmlns="http://www.w3.org/2000/svg" xmlns:xlink="http://www.w3.org/1999/xlink" x="0px" y="0px"
	 viewBox="0 0 95.3 105.8" style="enable-background:new 0 0 95.3 105.8;" xml:space="preserve">
<style type="text/css">
	.st0{fill-rule:evenodd;clip-rule:evenodd;fill:#FFFFFF;}
</style>
<g>
	<polygon class="st0" points="32.2,18.2 17.7,0.8 0,0.8 0,33.7 12.9,33.7 12.9,13.6 30.6,33.7 45.2,33.7 45.2,0.8 32.2,0.8 	"/>
	<path class="st0" d="M82.4,17.6c0.1,5.4-4.4,6.4-9.7,6.5C67.4,24,62.9,23,63,17.6v-0.8c-0.1-5.4,4.4-6.4,9.7-6.4
		c5.3,0.1,9.7,1.1,9.7,6.4V17.6z M72.7,0C60.3,0,50.1,3.6,50.1,16v2.4c0,12.4,10.1,16,22.6,16c12.4,0,22.6-3.6,22.6-16V16
		C95.3,3.6,85.2,0,72.7,0z"/>
	<polygon class="st0" points="18.5,58.1 30.6,69.4 47.6,69.4 30.4,52.9 47.6,36.4 30.6,36.4 18.5,47.7 12.9,47.7 12.9,36.4 0,36.4 
		0,69.4 12.9,69.4 12.9,58.1 	"/>
	<path class="st0" d="M82.1,53.3c0.1,5.4-4.4,6.4-9.7,6.5c-5.3-0.1-9.8-1.1-9.7-6.5v-0.8c-0.1-5.4,4.4-6.4,9.7-6.4
		c5.3,0.1,9.7,1.1,9.7,6.4V53.3z M72.5,35.6c-12.5,0-22.6,3.6-22.6,16v2.4c0,12.4,10.1,16,22.6,16c12.4,0,22.6-3.6,22.6-16v-2.4
		C95,39.2,84.9,35.6,72.5,35.6z"/>
	<polygon class="st0" points="18.5,93.7 30.6,105 47.6,105 30.4,88.5 47.6,72 30.6,72 18.5,83.3 12.9,83.3 12.9,72 0,72 0,105 
		12.9,105 12.9,93.7 	"/>
	<path class="st0" d="M82.1,88.9c0.1,5.4-4.4,6.4-9.7,6.4c-5.3-0.1-9.8-1-9.7-6.4v-0.8c-0.1-5.4,4.4-6.4,9.7-6.4
		c5.3,0.1,9.7,1,9.7,6.4V88.9z M72.5,71.2c-12.5,0-22.6,3.6-22.6,16.1v2.4c0,12.4,10.1,16,22.6,16.1c12.4,0,22.6-3.6,22.6-16.1v-2.4
		C95,74.9,84.9,71.2,72.5,71.2z"/>
</g>
</svg>
